<?xml version="1.0" encoding="UTF-8"?>
<svg width="96" height="96" viewBox="0 0 96 96" fill="none" xmlns="http://www.w3.org/2000/svg">
  <rect width="96" height="96" rx="8" fill="#FEE2E2"/>
  <g transform="translate(20, 20)">
    <circle cx="28" cy="28" r="28" fill="#FECACA"/>
    <path d="M35 21H33C33 19.3431 31.6569 18 30 18H26C24.3431 18 23 19.3431 23 21H21C19.8954 21 19 21.8954 19 23V35C19 36.1046 19.8954 37 21 37H35C36.1046 37 37 36.1046 37 35V23C37 21.8954 36.1046 21 35 21ZM26 20H30C30.5523 20 31 20.4477 31 21H25C25 20.4477 25.4477 20 26 20ZM35 35H21V23H35V35ZM25 27H31V29H25V27ZM25 31H31V33H25V31Z" fill="#DC2626"/>
  </g>
</svg>